<svg width="913" height="346" viewBox="0 0 913 346" fill="none" xmlns="http://www.w3.org/2000/svg">
<mask id="path-1-outside-1_105_458" maskUnits="userSpaceOnUse" x="-3" y="-2" width="918" height="350" fill="black">
<rect fill="white" x="-3" y="-2" width="918" height="350"/>
<path d="M185.336 346H12.3359V302.5H92.8359V52.5H86.8359L31.3359 108L0.335938 77L76.8359 0.499978H142.336V302.5H185.336V346ZM249.918 44L292.918 0.499978H385.418L428.918 44V302.5L385.418 346H255.918V302.5H379.418V216.5H292.918L249.918 173V44ZM298.918 44V173H379.418V44H298.918ZM675.5 302.5L632 346H545.5L502.5 302.5V44L545.5 0.499978H632L675.5 44V302.5ZM626 302.5V44H552V302.5H626ZM912.582 302.5L870.082 346H779.082L736.582 302.5V259.5H786.082V302.5H863.082V173H782.082V137L869.082 50V44H736.582V0.499978H912.582V56L838.082 130V136H869.082L912.582 179.5V302.5Z"/>
</mask>
<path d="M185.336 346V348H187.336V346H185.336ZM12.3359 346H10.3359V348H12.3359V346ZM12.3359 302.5V300.5H10.3359V302.5H12.3359ZM92.8359 302.5V304.5H94.8359V302.5H92.8359ZM92.8359 52.5H94.8359V50.5H92.8359V52.5ZM86.8359 52.5V50.5H86.0075L85.4217 51.0858L86.8359 52.5ZM31.3359 108L29.9217 109.414L31.3359 110.828L32.7502 109.414L31.3359 108ZM0.335938 77L-1.07828 75.5858L-2.49249 77L-1.07828 78.4142L0.335938 77ZM76.8359 0.499977V-1.50002H76.0075L75.4217 -0.914238L76.8359 0.499977ZM142.336 0.499977H144.336V-1.50002H142.336V0.499977ZM142.336 302.5H140.336V304.5H142.336V302.5ZM185.336 302.5H187.336V300.5H185.336V302.5ZM185.336 344H12.3359V348H185.336V344ZM14.3359 346V302.5H10.3359V346H14.3359ZM12.3359 304.5H92.8359V300.5H12.3359V304.5ZM94.8359 302.5V52.5H90.8359V302.5H94.8359ZM92.8359 50.5H86.8359V54.5H92.8359V50.5ZM85.4217 51.0858L29.9217 106.586L32.7502 109.414L88.2502 53.9142L85.4217 51.0858ZM32.7502 106.586L1.75015 75.5858L-1.07828 78.4142L29.9217 109.414L32.7502 106.586ZM1.75015 78.4142L78.2502 1.91419L75.4217 -0.914238L-1.07828 75.5858L1.75015 78.4142ZM76.8359 2.49998H142.336V-1.50002H76.8359V2.49998ZM140.336 0.499977V302.5H144.336V0.499977H140.336ZM142.336 304.5H185.336V300.5H142.336V304.5ZM183.336 302.5V346H187.336V302.5H183.336ZM249.918 44L248.496 42.594L247.918 43.1783V44H249.918ZM292.918 0.499977V-1.50002H292.083L291.496 -0.906036L292.918 0.499977ZM385.418 0.499977L386.832 -0.914238L386.246 -1.50002H385.418V0.499977ZM428.918 44H430.918V43.1716L430.332 42.5858L428.918 44ZM428.918 302.5L430.332 303.914L430.918 303.328V302.5H428.918ZM385.418 346V348H386.246L386.832 347.414L385.418 346ZM255.918 346H253.918V348H255.918V346ZM255.918 302.5V300.5H253.918V302.5H255.918ZM379.418 302.5V304.5H381.418V302.5H379.418ZM379.418 216.5H381.418V214.5H379.418V216.5ZM292.918 216.5L291.496 217.906L292.083 218.5H292.918V216.5ZM249.918 173H247.918V173.822L248.496 174.406L249.918 173ZM298.918 44V42H296.918V44H298.918ZM298.918 173H296.918V175H298.918V173ZM379.418 173V175H381.418V173H379.418ZM379.418 44H381.418V42H379.418V44ZM251.34 45.406L294.34 1.90599L291.496 -0.906036L248.496 42.594L251.34 45.406ZM292.918 2.49998H385.418V-1.50002H292.918V2.49998ZM384.004 1.91419L427.504 45.4142L430.332 42.5858L386.832 -0.914238L384.004 1.91419ZM426.918 44V302.5H430.918V44H426.918ZM427.504 301.086L384.004 344.586L386.832 347.414L430.332 303.914L427.504 301.086ZM385.418 344H255.918V348H385.418V344ZM257.918 346V302.5H253.918V346H257.918ZM255.918 304.5H379.418V300.5H255.918V304.5ZM381.418 302.5V216.5H377.418V302.5H381.418ZM379.418 214.5H292.918V218.5H379.418V214.5ZM294.34 215.094L251.34 171.594L248.496 174.406L291.496 217.906L294.34 215.094ZM251.918 173V44H247.918V173H251.918ZM296.918 44V173H300.918V44H296.918ZM298.918 175H379.418V171H298.918V175ZM381.418 173V44H377.418V173H381.418ZM379.418 42H298.918V46H379.418V42ZM675.5 302.5L676.914 303.914L677.5 303.328V302.5H675.5ZM632 346V348H632.828L633.414 347.414L632 346ZM545.5 346L544.078 347.406L544.665 348H545.5V346ZM502.5 302.5H500.5V303.322L501.078 303.906L502.5 302.5ZM502.5 44L501.078 42.594L500.5 43.1783V44H502.5ZM545.5 0.499977V-1.50002H544.665L544.078 -0.906036L545.5 0.499977ZM632 0.499977L633.414 -0.914238L632.828 -1.50002H632V0.499977ZM675.5 44H677.5V43.1716L676.914 42.5858L675.5 44ZM626 302.5V304.5H628V302.5H626ZM626 44H628V42H626V44ZM552 44V42H550V44H552ZM552 302.5H550V304.5H552V302.5ZM674.086 301.086L630.586 344.586L633.414 347.414L676.914 303.914L674.086 301.086ZM632 344H545.5V348H632V344ZM546.922 344.594L503.922 301.094L501.078 303.906L544.078 347.406L546.922 344.594ZM504.5 302.5V44H500.5V302.5H504.5ZM503.922 45.406L546.922 1.90599L544.078 -0.906036L501.078 42.594L503.922 45.406ZM545.5 2.49998H632V-1.50002H545.5V2.49998ZM630.586 1.91419L674.086 45.4142L676.914 42.5858L633.414 -0.914238L630.586 1.91419ZM673.5 44V302.5H677.5V44H673.5ZM628 302.5V44H624V302.5H628ZM626 42H552V46H626V42ZM550 44V302.5H554V44H550ZM552 304.5H626V300.5H552V304.5ZM912.582 302.5L914.013 303.898L914.582 303.315V302.5H912.582ZM870.082 346V348H870.924L871.513 347.398L870.082 346ZM779.082 346L777.651 347.398L778.24 348H779.082V346ZM736.582 302.5H734.582V303.315L735.151 303.898L736.582 302.5ZM736.582 259.5V257.5H734.582V259.5H736.582ZM786.082 259.5H788.082V257.5H786.082V259.5ZM786.082 302.5H784.082V304.5H786.082V302.5ZM863.082 302.5V304.5H865.082V302.5H863.082ZM863.082 173H865.082V171H863.082V173ZM782.082 173H780.082V175H782.082V173ZM782.082 137L780.668 135.586L780.082 136.172V137H782.082ZM869.082 50L870.496 51.4142L871.082 50.8284V50H869.082ZM869.082 44H871.082V42H869.082V44ZM736.582 44H734.582V46H736.582V44ZM736.582 0.499977V-1.50002H734.582V0.499977H736.582ZM912.582 0.499977H914.582V-1.50002H912.582V0.499977ZM912.582 56L913.991 57.4189L914.582 56.8324V56H912.582ZM838.082 130L836.673 128.581L836.082 129.168V130H838.082ZM838.082 136H836.082V138H838.082V136ZM869.082 136L870.496 134.586L869.911 134H869.082V136ZM912.582 179.5H914.582V178.672L913.996 178.086L912.582 179.5ZM911.151 301.102L868.651 344.602L871.513 347.398L914.013 303.898L911.151 301.102ZM870.082 344H779.082V348H870.082V344ZM780.513 344.602L738.013 301.102L735.151 303.898L777.651 347.398L780.513 344.602ZM738.582 302.5V259.5H734.582V302.5H738.582ZM736.582 261.5H786.082V257.5H736.582V261.5ZM784.082 259.5V302.5H788.082V259.5H784.082ZM786.082 304.5H863.082V300.5H786.082V304.5ZM865.082 302.5V173H861.082V302.5H865.082ZM863.082 171H782.082V175H863.082V171ZM784.082 173V137H780.082V173H784.082ZM783.496 138.414L870.496 51.4142L867.668 48.5858L780.668 135.586L783.496 138.414ZM871.082 50V44H867.082V50H871.082ZM869.082 42H736.582V46H869.082V42ZM738.582 44V0.499977H734.582V44H738.582ZM736.582 2.49998H912.582V-1.50002H736.582V2.49998ZM910.582 0.499977V56H914.582V0.499977H910.582ZM911.173 54.581L836.673 128.581L839.491 131.419L913.991 57.4189L911.173 54.581ZM836.082 130V136H840.082V130H836.082ZM838.082 138H869.082V134H838.082V138ZM867.668 137.414L911.168 180.914L913.996 178.086L870.496 134.586L867.668 137.414ZM910.582 179.5V302.5H914.582V179.5H910.582Z" fill="#C7C7C7" fill-opacity="0.4" mask="url(#path-1-outside-1_105_458)"/>
</svg>
