<svg width="973" height="406" viewBox="0 0 973 406" fill="none" xmlns="http://www.w3.org/2000/svg">
<g filter="url(#filter0_f_1_583)">
<mask id="path-1-outside-1_1_583" maskUnits="userSpaceOnUse" x="26" y="27" width="920" height="352" fill="black">
<rect fill="white" x="26" y="27" width="920" height="352"/>
<path d="M215.336 376H42.3359V332.5H122.836V82.5H116.836L61.3359 138L30.3359 107L106.836 30.5H172.336V332.5H215.336V376ZM279.918 74L322.918 30.5H415.418L458.918 74V332.5L415.418 376H285.918V332.5H409.418V246.5H322.918L279.918 203V74ZM328.918 74V203H409.418V74H328.918ZM705.5 332.5L662 376H575.5L532.5 332.5V74L575.5 30.5H662L705.5 74V332.5ZM656 332.5V74H582V332.5H656ZM942.582 332.5L900.082 376H809.082L766.582 332.5V289.5H816.082V332.5H893.082V203H812.082V167L899.082 80V74H766.582V30.5H942.582V86L868.082 160V166H899.082L942.582 209.5V332.5Z"/>
</mask>
<path d="M215.336 376V379H218.336V376H215.336ZM42.3359 376H39.3359V379H42.3359V376ZM42.3359 332.5V329.5H39.3359V332.5H42.3359ZM122.836 332.5V335.5H125.836V332.5H122.836ZM122.836 82.5H125.836V79.5H122.836V82.5ZM116.836 82.5V79.5H115.593L114.715 80.3787L116.836 82.5ZM61.3359 138L59.2146 140.121L61.3359 142.243L63.4573 140.121L61.3359 138ZM30.3359 107L28.2146 104.879L26.0933 107L28.2146 109.121L30.3359 107ZM106.836 30.5V27.5H105.593L104.715 28.3787L106.836 30.5ZM172.336 30.5H175.336V27.5H172.336V30.5ZM172.336 332.5H169.336V335.5H172.336V332.5ZM215.336 332.5H218.336V329.5H215.336V332.5ZM215.336 373H42.3359V379H215.336V373ZM45.3359 376V332.5H39.3359V376H45.3359ZM42.3359 335.5H122.836V329.5H42.3359V335.5ZM125.836 332.5V82.5H119.836V332.5H125.836ZM122.836 79.5H116.836V85.5H122.836V79.5ZM114.715 80.3787L59.2146 135.879L63.4573 140.121L118.957 84.6213L114.715 80.3787ZM63.4573 135.879L32.4573 104.879L28.2146 109.121L59.2146 140.121L63.4573 135.879ZM32.4573 109.121L108.957 32.6213L104.715 28.3787L28.2146 104.879L32.4573 109.121ZM106.836 33.5H172.336V27.5H106.836V33.5ZM169.336 30.5V332.5H175.336V30.5H169.336ZM172.336 335.5H215.336V329.5H172.336V335.5ZM212.336 332.5V376H218.336V332.5H212.336ZM279.918 74L277.784 71.891L276.918 72.7675V74H279.918ZM322.918 30.5V27.5H321.665L320.784 28.391L322.918 30.5ZM415.418 30.5L417.539 28.3787L416.661 27.5H415.418V30.5ZM458.918 74H461.918V72.7573L461.039 71.8787L458.918 74ZM458.918 332.5L461.039 334.621L461.918 333.743V332.5H458.918ZM415.418 376V379H416.661L417.539 378.121L415.418 376ZM285.918 376H282.918V379H285.918V376ZM285.918 332.5V329.5H282.918V332.5H285.918ZM409.418 332.5V335.5H412.418V332.5H409.418ZM409.418 246.5H412.418V243.5H409.418V246.5ZM322.918 246.5L320.784 248.609L321.665 249.5H322.918V246.5ZM279.918 203H276.918V204.232L277.784 205.109L279.918 203ZM328.918 74V71H325.918V74H328.918ZM328.918 203H325.918V206H328.918V203ZM409.418 203V206H412.418V203H409.418ZM409.418 74H412.418V71H409.418V74ZM282.052 76.109L325.052 32.609L320.784 28.391L277.784 71.891L282.052 76.109ZM322.918 33.5H415.418V27.5H322.918V33.5ZM413.297 32.6213L456.797 76.1213L461.039 71.8787L417.539 28.3787L413.297 32.6213ZM455.918 74V332.5H461.918V74H455.918ZM456.797 330.379L413.297 373.879L417.539 378.121L461.039 334.621L456.797 330.379ZM415.418 373H285.918V379H415.418V373ZM288.918 376V332.5H282.918V376H288.918ZM285.918 335.5H409.418V329.5H285.918V335.5ZM412.418 332.5V246.5H406.418V332.5H412.418ZM409.418 243.5H322.918V249.5H409.418V243.5ZM325.052 244.391L282.052 200.891L277.784 205.109L320.784 248.609L325.052 244.391ZM282.918 203V74H276.918V203H282.918ZM325.918 74V203H331.918V74H325.918ZM328.918 206H409.418V200H328.918V206ZM412.418 203V74H406.418V203H412.418ZM409.418 71H328.918V77H409.418V71ZM705.5 332.5L707.621 334.621L708.5 333.743V332.5H705.5ZM662 376V379H663.243L664.121 378.121L662 376ZM575.5 376L573.366 378.109L574.247 379H575.5V376ZM532.5 332.5H529.5V333.732L530.366 334.609L532.5 332.5ZM532.5 74L530.366 71.891L529.5 72.7675V74H532.5ZM575.5 30.5V27.5H574.247L573.366 28.391L575.5 30.5ZM662 30.5L664.121 28.3787L663.243 27.5H662V30.5ZM705.5 74H708.5V72.7573L707.621 71.8787L705.5 74ZM656 332.5V335.5H659V332.5H656ZM656 74H659V71H656V74ZM582 74V71H579V74H582ZM582 332.5H579V335.5H582V332.5ZM703.379 330.379L659.879 373.879L664.121 378.121L707.621 334.621L703.379 330.379ZM662 373H575.5V379H662V373ZM577.634 373.891L534.634 330.391L530.366 334.609L573.366 378.109L577.634 373.891ZM535.5 332.5V74H529.5V332.5H535.5ZM534.634 76.109L577.634 32.609L573.366 28.391L530.366 71.891L534.634 76.109ZM575.5 33.5H662V27.5H575.5V33.5ZM659.879 32.6213L703.379 76.1213L707.621 71.8787L664.121 28.3787L659.879 32.6213ZM702.5 74V332.5H708.5V74H702.5ZM659 332.5V74H653V332.5H659ZM656 71H582V77H656V71ZM579 74V332.5H585V74H579ZM582 335.5H656V329.5H582V335.5ZM942.582 332.5L944.728 334.596L945.582 333.722V332.5H942.582ZM900.082 376V379H901.345L902.228 378.097L900.082 376ZM809.082 376L806.936 378.097L807.819 379H809.082V376ZM766.582 332.5H763.582V333.722L764.436 334.596L766.582 332.5ZM766.582 289.5V286.5H763.582V289.5H766.582ZM816.082 289.5H819.082V286.5H816.082V289.5ZM816.082 332.5H813.082V335.5H816.082V332.5ZM893.082 332.5V335.5H896.082V332.5H893.082ZM893.082 203H896.082V200H893.082V203ZM812.082 203H809.082V206H812.082V203ZM812.082 167L809.961 164.879L809.082 165.757V167H812.082ZM899.082 80L901.203 82.1213L902.082 81.2426V80H899.082ZM899.082 74H902.082V71H899.082V74ZM766.582 74H763.582V77H766.582V74ZM766.582 30.5V27.5H763.582V30.5H766.582ZM942.582 30.5H945.582V27.5H942.582V30.5ZM942.582 86L944.696 88.1284L945.582 87.2485V86H942.582ZM868.082 160L865.968 157.872L865.082 158.751V160H868.082ZM868.082 166H865.082V169H868.082V166ZM899.082 166L901.203 163.879L900.325 163H899.082V166ZM942.582 209.5H945.582V208.257L944.703 207.379L942.582 209.5ZM940.436 330.403L897.936 373.903L902.228 378.097L944.728 334.596L940.436 330.403ZM900.082 373H809.082V379H900.082V373ZM811.228 373.903L768.728 330.403L764.436 334.596L806.936 378.097L811.228 373.903ZM769.582 332.5V289.5H763.582V332.5H769.582ZM766.582 292.5H816.082V286.5H766.582V292.5ZM813.082 289.5V332.5H819.082V289.5H813.082ZM816.082 335.5H893.082V329.5H816.082V335.5ZM896.082 332.5V203H890.082V332.5H896.082ZM893.082 200H812.082V206H893.082V200ZM815.082 203V167H809.082V203H815.082ZM814.203 169.121L901.203 82.1213L896.961 77.8787L809.961 164.879L814.203 169.121ZM902.082 80V74H896.082V80H902.082ZM899.082 71H766.582V77H899.082V71ZM769.582 74V30.5H763.582V74H769.582ZM766.582 33.5H942.582V27.5H766.582V33.5ZM939.582 30.5V86H945.582V30.5H939.582ZM940.468 83.8715L865.968 157.872L870.196 162.128L944.696 88.1284L940.468 83.8715ZM865.082 160V166H871.082V160H865.082ZM868.082 169H899.082V163H868.082V169ZM896.961 168.121L940.461 211.621L944.703 207.379L901.203 163.879L896.961 168.121ZM939.582 209.5V332.5H945.582V209.5H939.582Z" fill="#96ADFF" mask="url(#path-1-outside-1_1_583)"/>
</g>
<defs>
<filter id="filter0_f_1_583" x="0.335938" y="0.5" width="972.246" height="405.5" filterUnits="userSpaceOnUse" color-interpolation-filters="sRGB">
<feFlood flood-opacity="0" result="BackgroundImageFix"/>
<feBlend mode="normal" in="SourceGraphic" in2="BackgroundImageFix" result="shape"/>
<feGaussianBlur stdDeviation="15" result="effect1_foregroundBlur_1_583"/>
</filter>
</defs>
</svg>
