<svg width="929" height="346" viewBox="0 0 929 346" fill="none" xmlns="http://www.w3.org/2000/svg">
<mask id="path-1-outside-1_113_460" maskUnits="userSpaceOnUse" x="-3" y="-2" width="934" height="350" fill="black">
<rect fill="white" x="-3" y="-2" width="934" height="350"/>
<path d="M185.336 346H12.3359V302.5H92.8359V52.5H86.8359L31.3359 108L0.335938 77L76.8359 0.499978H142.336V302.5H185.336V346ZM249.918 44L292.918 0.499978H385.418L428.918 44V302.5L385.418 346H255.918V302.5H379.418V216.5H292.918L249.918 173V44ZM298.918 44V173H379.418V44H298.918ZM669.5 165L536.5 296.5V302.5H666V346H493.5V279L620 153V44H542.5V130H493.5V44L536 0.499978H626.5L669.5 44V165ZM928.082 302.5L885.082 346H792.082L749.082 302.5V44L792.082 0.499978H922.082V44H798.582V130H885.082L928.082 173V302.5ZM878.582 302.5V173H798.582V302.5H878.582Z"/>
</mask>
<path d="M185.336 346V348H187.336V346H185.336ZM12.3359 346H10.3359V348H12.3359V346ZM12.3359 302.5V300.5H10.3359V302.5H12.3359ZM92.8359 302.5V304.5H94.8359V302.5H92.8359ZM92.8359 52.5H94.8359V50.5H92.8359V52.5ZM86.8359 52.5V50.5H86.0075L85.4217 51.0858L86.8359 52.5ZM31.3359 108L29.9217 109.414L31.3359 110.828L32.7502 109.414L31.3359 108ZM0.335938 77L-1.07828 75.5858L-2.49249 77L-1.07828 78.4142L0.335938 77ZM76.8359 0.499977V-1.50002H76.0075L75.4217 -0.914238L76.8359 0.499977ZM142.336 0.499977H144.336V-1.50002H142.336V0.499977ZM142.336 302.5H140.336V304.5H142.336V302.5ZM185.336 302.5H187.336V300.5H185.336V302.5ZM185.336 344H12.3359V348H185.336V344ZM14.3359 346V302.5H10.3359V346H14.3359ZM12.3359 304.5H92.8359V300.5H12.3359V304.5ZM94.8359 302.5V52.5H90.8359V302.5H94.8359ZM92.8359 50.5H86.8359V54.5H92.8359V50.5ZM85.4217 51.0858L29.9217 106.586L32.7502 109.414L88.2502 53.9142L85.4217 51.0858ZM32.7502 106.586L1.75015 75.5858L-1.07828 78.4142L29.9217 109.414L32.7502 106.586ZM1.75015 78.4142L78.2502 1.91419L75.4217 -0.914238L-1.07828 75.5858L1.75015 78.4142ZM76.8359 2.49998H142.336V-1.50002H76.8359V2.49998ZM140.336 0.499977V302.5H144.336V0.499977H140.336ZM142.336 304.5H185.336V300.5H142.336V304.5ZM183.336 302.5V346H187.336V302.5H183.336ZM249.918 44L248.496 42.594L247.918 43.1783V44H249.918ZM292.918 0.499977V-1.50002H292.083L291.496 -0.906036L292.918 0.499977ZM385.418 0.499977L386.832 -0.914238L386.246 -1.50002H385.418V0.499977ZM428.918 44H430.918V43.1716L430.332 42.5858L428.918 44ZM428.918 302.5L430.332 303.914L430.918 303.328V302.5H428.918ZM385.418 346V348H386.246L386.832 347.414L385.418 346ZM255.918 346H253.918V348H255.918V346ZM255.918 302.5V300.5H253.918V302.5H255.918ZM379.418 302.5V304.5H381.418V302.5H379.418ZM379.418 216.5H381.418V214.5H379.418V216.5ZM292.918 216.5L291.496 217.906L292.083 218.5H292.918V216.5ZM249.918 173H247.918V173.822L248.496 174.406L249.918 173ZM298.918 44V42H296.918V44H298.918ZM298.918 173H296.918V175H298.918V173ZM379.418 173V175H381.418V173H379.418ZM379.418 44H381.418V42H379.418V44ZM251.34 45.406L294.34 1.90599L291.496 -0.906036L248.496 42.594L251.34 45.406ZM292.918 2.49998H385.418V-1.50002H292.918V2.49998ZM384.004 1.91419L427.504 45.4142L430.332 42.5858L386.832 -0.914238L384.004 1.91419ZM426.918 44V302.5H430.918V44H426.918ZM427.504 301.086L384.004 344.586L386.832 347.414L430.332 303.914L427.504 301.086ZM385.418 344H255.918V348H385.418V344ZM257.918 346V302.5H253.918V346H257.918ZM255.918 304.5H379.418V300.5H255.918V304.5ZM381.418 302.5V216.5H377.418V302.5H381.418ZM379.418 214.5H292.918V218.5H379.418V214.5ZM294.34 215.094L251.34 171.594L248.496 174.406L291.496 217.906L294.34 215.094ZM251.918 173V44H247.918V173H251.918ZM296.918 44V173H300.918V44H296.918ZM298.918 175H379.418V171H298.918V175ZM381.418 173V44H377.418V173H381.418ZM379.418 42H298.918V46H379.418V42ZM669.5 165L670.906 166.422L671.5 165.835V165H669.5ZM536.5 296.5L535.094 295.078L534.5 295.665V296.5H536.5ZM536.5 302.5H534.5V304.5H536.5V302.5ZM666 302.5H668V300.5H666V302.5ZM666 346V348H668V346H666ZM493.5 346H491.5V348H493.5V346ZM493.5 279L492.089 277.583L491.5 278.169V279H493.5ZM620 153L621.411 154.417L622 153.831V153H620ZM620 44H622V42H620V44ZM542.5 44V42H540.5V44H542.5ZM542.5 130V132H544.5V130H542.5ZM493.5 130H491.5V132H493.5V130ZM493.5 44L492.069 42.6023L491.5 43.1852V44H493.5ZM536 0.499977V-1.50002H535.158L534.569 -0.897697L536 0.499977ZM626.5 0.499977L627.922 -0.906036L627.335 -1.50002H626.5V0.499977ZM669.5 44H671.5V43.1783L670.922 42.594L669.5 44ZM668.094 163.578L535.094 295.078L537.906 297.922L670.906 166.422L668.094 163.578ZM534.5 296.5V302.5H538.5V296.5H534.5ZM536.5 304.5H666V300.5H536.5V304.5ZM664 302.5V346H668V302.5H664ZM666 344H493.5V348H666V344ZM495.5 346V279H491.5V346H495.5ZM494.911 280.417L621.411 154.417L618.589 151.583L492.089 277.583L494.911 280.417ZM622 153V44H618V153H622ZM620 42H542.5V46H620V42ZM540.5 44V130H544.5V44H540.5ZM542.5 128H493.5V132H542.5V128ZM495.5 130V44H491.5V130H495.5ZM494.931 45.3977L537.431 1.89765L534.569 -0.897697L492.069 42.6023L494.931 45.3977ZM536 2.49998H626.5V-1.50002H536V2.49998ZM625.078 1.90599L668.078 45.406L670.922 42.594L627.922 -0.906036L625.078 1.90599ZM667.5 44V165H671.5V44H667.5ZM928.082 302.5L929.504 303.906L930.082 303.322V302.5H928.082ZM885.082 346V348H885.917L886.504 347.406L885.082 346ZM792.082 346L790.66 347.406L791.247 348H792.082V346ZM749.082 302.5H747.082V303.322L747.66 303.906L749.082 302.5ZM749.082 44L747.66 42.594L747.082 43.1783V44H749.082ZM792.082 0.499977V-1.50002H791.247L790.66 -0.906036L792.082 0.499977ZM922.082 0.499977H924.082V-1.50002H922.082V0.499977ZM922.082 44V46H924.082V44H922.082ZM798.582 44V42H796.582V44H798.582ZM798.582 130H796.582V132H798.582V130ZM885.082 130L886.496 128.586L885.911 128H885.082V130ZM928.082 173H930.082V172.172L929.496 171.586L928.082 173ZM878.582 302.5V304.5H880.582V302.5H878.582ZM878.582 173H880.582V171H878.582V173ZM798.582 173V171H796.582V173H798.582ZM798.582 302.5H796.582V304.5H798.582V302.5ZM926.66 301.094L883.66 344.594L886.504 347.406L929.504 303.906L926.66 301.094ZM885.082 344H792.082V348H885.082V344ZM793.504 344.594L750.504 301.094L747.66 303.906L790.66 347.406L793.504 344.594ZM751.082 302.5V44H747.082V302.5H751.082ZM750.504 45.406L793.504 1.90599L790.66 -0.906036L747.66 42.594L750.504 45.406ZM792.082 2.49998H922.082V-1.50002H792.082V2.49998ZM920.082 0.499977V44H924.082V0.499977H920.082ZM922.082 42H798.582V46H922.082V42ZM796.582 44V130H800.582V44H796.582ZM798.582 132H885.082V128H798.582V132ZM883.668 131.414L926.668 174.414L929.496 171.586L886.496 128.586L883.668 131.414ZM926.082 173V302.5H930.082V173H926.082ZM880.582 302.5V173H876.582V302.5H880.582ZM878.582 171H798.582V175H878.582V171ZM796.582 173V302.5H800.582V173H796.582ZM798.582 304.5H878.582V300.5H798.582V304.5Z" fill="#C7C7C7" fill-opacity="0.4" mask="url(#path-1-outside-1_113_460)"/>
</svg>
