<svg width="926" height="346" viewBox="0 0 926 346" fill="none" xmlns="http://www.w3.org/2000/svg">
<mask id="path-1-outside-1_113_464" maskUnits="userSpaceOnUse" x="-3" y="-2" width="931" height="350" fill="black">
<rect fill="white" x="-3" y="-2" width="931" height="350"/>
<path d="M185.336 346H12.3359V302.5H92.8359V52.5H86.8359L31.3359 108L0.335938 77L76.8359 0.499978H142.336V302.5H185.336V346ZM249.918 44L292.918 0.499978H385.418L428.918 44V302.5L385.418 346H255.918V302.5H379.418V216.5H292.918L249.918 173V44ZM298.918 44V173H379.418V44H298.918ZM666 302.5L623.5 346H532.5L490 302.5V259.5H539.5V302.5H616.5V173H535.5V137L622.5 50V44H490V0.499978H666V56L591.5 130V136H622.5L666 179.5V302.5ZM925.082 346H752.082V302.5H832.582V52.5H826.582L771.082 108L740.082 77L816.582 0.499978H882.082V302.5H925.082V346Z"/>
</mask>
<path d="M185.336 346V348H187.336V346H185.336ZM12.3359 346H10.3359V348H12.3359V346ZM12.3359 302.5V300.5H10.3359V302.5H12.3359ZM92.8359 302.5V304.5H94.8359V302.5H92.8359ZM92.8359 52.5H94.8359V50.5H92.8359V52.5ZM86.8359 52.5V50.5H86.0075L85.4217 51.0858L86.8359 52.5ZM31.3359 108L29.9217 109.414L31.3359 110.828L32.7502 109.414L31.3359 108ZM0.335938 77L-1.07828 75.5858L-2.49249 77L-1.07828 78.4142L0.335938 77ZM76.8359 0.499977V-1.50002H76.0075L75.4217 -0.914238L76.8359 0.499977ZM142.336 0.499977H144.336V-1.50002H142.336V0.499977ZM142.336 302.5H140.336V304.5H142.336V302.5ZM185.336 302.5H187.336V300.5H185.336V302.5ZM185.336 344H12.3359V348H185.336V344ZM14.3359 346V302.5H10.3359V346H14.3359ZM12.3359 304.5H92.8359V300.5H12.3359V304.5ZM94.8359 302.5V52.5H90.8359V302.5H94.8359ZM92.8359 50.5H86.8359V54.5H92.8359V50.5ZM85.4217 51.0858L29.9217 106.586L32.7502 109.414L88.2502 53.9142L85.4217 51.0858ZM32.7502 106.586L1.75015 75.5858L-1.07828 78.4142L29.9217 109.414L32.7502 106.586ZM1.75015 78.4142L78.2502 1.91419L75.4217 -0.914238L-1.07828 75.5858L1.75015 78.4142ZM76.8359 2.49998H142.336V-1.50002H76.8359V2.49998ZM140.336 0.499977V302.5H144.336V0.499977H140.336ZM142.336 304.5H185.336V300.5H142.336V304.5ZM183.336 302.5V346H187.336V302.5H183.336ZM249.918 44L248.496 42.594L247.918 43.1783V44H249.918ZM292.918 0.499977V-1.50002H292.083L291.496 -0.906036L292.918 0.499977ZM385.418 0.499977L386.832 -0.914238L386.246 -1.50002H385.418V0.499977ZM428.918 44H430.918V43.1716L430.332 42.5858L428.918 44ZM428.918 302.5L430.332 303.914L430.918 303.328V302.5H428.918ZM385.418 346V348H386.246L386.832 347.414L385.418 346ZM255.918 346H253.918V348H255.918V346ZM255.918 302.5V300.5H253.918V302.5H255.918ZM379.418 302.5V304.5H381.418V302.5H379.418ZM379.418 216.5H381.418V214.5H379.418V216.5ZM292.918 216.5L291.496 217.906L292.083 218.5H292.918V216.5ZM249.918 173H247.918V173.822L248.496 174.406L249.918 173ZM298.918 44V42H296.918V44H298.918ZM298.918 173H296.918V175H298.918V173ZM379.418 173V175H381.418V173H379.418ZM379.418 44H381.418V42H379.418V44ZM251.34 45.406L294.34 1.90599L291.496 -0.906036L248.496 42.594L251.34 45.406ZM292.918 2.49998H385.418V-1.50002H292.918V2.49998ZM384.004 1.91419L427.504 45.4142L430.332 42.5858L386.832 -0.914238L384.004 1.91419ZM426.918 44V302.5H430.918V44H426.918ZM427.504 301.086L384.004 344.586L386.832 347.414L430.332 303.914L427.504 301.086ZM385.418 344H255.918V348H385.418V344ZM257.918 346V302.5H253.918V346H257.918ZM255.918 304.5H379.418V300.5H255.918V304.5ZM381.418 302.5V216.5H377.418V302.5H381.418ZM379.418 214.5H292.918V218.5H379.418V214.5ZM294.34 215.094L251.34 171.594L248.496 174.406L291.496 217.906L294.34 215.094ZM251.918 173V44H247.918V173H251.918ZM296.918 44V173H300.918V44H296.918ZM298.918 175H379.418V171H298.918V175ZM381.418 173V44H377.418V173H381.418ZM379.418 42H298.918V46H379.418V42ZM666 302.5L667.431 303.898L668 303.315V302.5H666ZM623.5 346V348H624.342L624.931 347.398L623.5 346ZM532.5 346L531.069 347.398L531.658 348H532.5V346ZM490 302.5H488V303.315L488.569 303.898L490 302.5ZM490 259.5V257.5H488V259.5H490ZM539.5 259.5H541.5V257.5H539.5V259.5ZM539.5 302.5H537.5V304.5H539.5V302.5ZM616.5 302.5V304.5H618.5V302.5H616.5ZM616.5 173H618.5V171H616.5V173ZM535.5 173H533.5V175H535.5V173ZM535.5 137L534.086 135.586L533.5 136.172V137H535.5ZM622.5 50L623.914 51.4142L624.5 50.8284V50H622.5ZM622.5 44H624.5V42H622.5V44ZM490 44H488V46H490V44ZM490 0.499977V-1.50002H488V0.499977H490ZM666 0.499977H668V-1.50002H666V0.499977ZM666 56L667.409 57.4189L668 56.8324V56H666ZM591.5 130L590.091 128.581L589.5 129.168V130H591.5ZM591.5 136H589.5V138H591.5V136ZM622.5 136L623.914 134.586L623.328 134H622.5V136ZM666 179.5H668V178.672L667.414 178.086L666 179.5ZM664.569 301.102L622.069 344.602L624.931 347.398L667.431 303.898L664.569 301.102ZM623.5 344H532.5V348H623.5V344ZM533.931 344.602L491.431 301.102L488.569 303.898L531.069 347.398L533.931 344.602ZM492 302.5V259.5H488V302.5H492ZM490 261.5H539.5V257.5H490V261.5ZM537.5 259.5V302.5H541.5V259.5H537.5ZM539.5 304.5H616.5V300.5H539.5V304.5ZM618.5 302.5V173H614.5V302.5H618.5ZM616.5 171H535.5V175H616.5V171ZM537.5 173V137H533.5V173H537.5ZM536.914 138.414L623.914 51.4142L621.086 48.5858L534.086 135.586L536.914 138.414ZM624.5 50V44H620.5V50H624.5ZM622.5 42H490V46H622.5V42ZM492 44V0.499977H488V44H492ZM490 2.49998H666V-1.50002H490V2.49998ZM664 0.499977V56H668V0.499977H664ZM664.591 54.581L590.091 128.581L592.909 131.419L667.409 57.4189L664.591 54.581ZM589.5 130V136H593.5V130H589.5ZM591.5 138H622.5V134H591.5V138ZM621.086 137.414L664.586 180.914L667.414 178.086L623.914 134.586L621.086 137.414ZM664 179.5V302.5H668V179.5H664ZM925.082 346V348H927.082V346H925.082ZM752.082 346H750.082V348H752.082V346ZM752.082 302.5V300.5H750.082V302.5H752.082ZM832.582 302.5V304.5H834.582V302.5H832.582ZM832.582 52.5H834.582V50.5H832.582V52.5ZM826.582 52.5V50.5H825.754L825.168 51.0858L826.582 52.5ZM771.082 108L769.668 109.414L771.082 110.828L772.496 109.414L771.082 108ZM740.082 77L738.668 75.5858L737.254 77L738.668 78.4142L740.082 77ZM816.582 0.499977V-1.50002H815.754L815.168 -0.914238L816.582 0.499977ZM882.082 0.499977H884.082V-1.50002H882.082V0.499977ZM882.082 302.5H880.082V304.5H882.082V302.5ZM925.082 302.5H927.082V300.5H925.082V302.5ZM925.082 344H752.082V348H925.082V344ZM754.082 346V302.5H750.082V346H754.082ZM752.082 304.5H832.582V300.5H752.082V304.5ZM834.582 302.5V52.5H830.582V302.5H834.582ZM832.582 50.5H826.582V54.5H832.582V50.5ZM825.168 51.0858L769.668 106.586L772.496 109.414L827.996 53.9142L825.168 51.0858ZM772.496 106.586L741.496 75.5858L738.668 78.4142L769.668 109.414L772.496 106.586ZM741.496 78.4142L817.996 1.91419L815.168 -0.914238L738.668 75.5858L741.496 78.4142ZM816.582 2.49998H882.082V-1.50002H816.582V2.49998ZM880.082 0.499977V302.5H884.082V0.499977H880.082ZM882.082 304.5H925.082V300.5H882.082V304.5ZM923.082 302.5V346H927.082V302.5H923.082Z" fill="#C7C7C7" fill-opacity="0.4" mask="url(#path-1-outside-1_113_464)"/>
</svg>
