<svg width="919" height="346" viewBox="0 0 919 346" fill="none" xmlns="http://www.w3.org/2000/svg">
<mask id="path-1-outside-1_114_468" maskUnits="userSpaceOnUse" x="-3" y="-2" width="924" height="350" fill="black">
<rect fill="white" x="-3" y="-2" width="924" height="350"/>
<path d="M185.336 346H12.3359V302.5H92.8359V52.5H86.8359L31.3359 108L0.335938 77L76.8359 0.499978H142.336V302.5H185.336V346ZM249.918 44L292.918 0.499978H385.418L428.918 44V302.5L385.418 346H255.918V302.5H379.418V216.5H292.918L249.918 173V44ZM298.918 44V173H379.418V44H298.918ZM675.5 302.5L632 346H545.5L502.5 302.5V259.5H552V302.5H626V173H502.5V0.499978H675.5V44H545.5V130H632L675.5 173V302.5ZM918.582 180L841.582 256.5V346H792.082V242.5L869.082 165V44H789.082V130H740.082V0.499978H918.582V180Z"/>
</mask>
<path d="M185.336 346V348H187.336V346H185.336ZM12.3359 346H10.3359V348H12.3359V346ZM12.3359 302.5V300.5H10.3359V302.5H12.3359ZM92.8359 302.5V304.5H94.8359V302.5H92.8359ZM92.8359 52.5H94.8359V50.5H92.8359V52.5ZM86.8359 52.5V50.5H86.0075L85.4217 51.0858L86.8359 52.5ZM31.3359 108L29.9217 109.414L31.3359 110.828L32.7502 109.414L31.3359 108ZM0.335938 77L-1.07828 75.5858L-2.49249 77L-1.07828 78.4142L0.335938 77ZM76.8359 0.499977V-1.50002H76.0075L75.4217 -0.914238L76.8359 0.499977ZM142.336 0.499977H144.336V-1.50002H142.336V0.499977ZM142.336 302.5H140.336V304.5H142.336V302.5ZM185.336 302.5H187.336V300.5H185.336V302.5ZM185.336 344H12.3359V348H185.336V344ZM14.3359 346V302.5H10.3359V346H14.3359ZM12.3359 304.5H92.8359V300.5H12.3359V304.5ZM94.8359 302.5V52.5H90.8359V302.5H94.8359ZM92.8359 50.5H86.8359V54.5H92.8359V50.5ZM85.4217 51.0858L29.9217 106.586L32.7502 109.414L88.2502 53.9142L85.4217 51.0858ZM32.7502 106.586L1.75015 75.5858L-1.07828 78.4142L29.9217 109.414L32.7502 106.586ZM1.75015 78.4142L78.2502 1.91419L75.4217 -0.914238L-1.07828 75.5858L1.75015 78.4142ZM76.8359 2.49998H142.336V-1.50002H76.8359V2.49998ZM140.336 0.499977V302.5H144.336V0.499977H140.336ZM142.336 304.5H185.336V300.5H142.336V304.5ZM183.336 302.5V346H187.336V302.5H183.336ZM249.918 44L248.496 42.594L247.918 43.1783V44H249.918ZM292.918 0.499977V-1.50002H292.083L291.496 -0.906036L292.918 0.499977ZM385.418 0.499977L386.832 -0.914238L386.246 -1.50002H385.418V0.499977ZM428.918 44H430.918V43.1716L430.332 42.5858L428.918 44ZM428.918 302.5L430.332 303.914L430.918 303.328V302.5H428.918ZM385.418 346V348H386.246L386.832 347.414L385.418 346ZM255.918 346H253.918V348H255.918V346ZM255.918 302.5V300.5H253.918V302.5H255.918ZM379.418 302.5V304.5H381.418V302.5H379.418ZM379.418 216.5H381.418V214.5H379.418V216.5ZM292.918 216.5L291.496 217.906L292.083 218.5H292.918V216.5ZM249.918 173H247.918V173.822L248.496 174.406L249.918 173ZM298.918 44V42H296.918V44H298.918ZM298.918 173H296.918V175H298.918V173ZM379.418 173V175H381.418V173H379.418ZM379.418 44H381.418V42H379.418V44ZM251.34 45.406L294.34 1.90599L291.496 -0.906036L248.496 42.594L251.34 45.406ZM292.918 2.49998H385.418V-1.50002H292.918V2.49998ZM384.004 1.91419L427.504 45.4142L430.332 42.5858L386.832 -0.914238L384.004 1.91419ZM426.918 44V302.5H430.918V44H426.918ZM427.504 301.086L384.004 344.586L386.832 347.414L430.332 303.914L427.504 301.086ZM385.418 344H255.918V348H385.418V344ZM257.918 346V302.5H253.918V346H257.918ZM255.918 304.5H379.418V300.5H255.918V304.5ZM381.418 302.5V216.5H377.418V302.5H381.418ZM379.418 214.5H292.918V218.5H379.418V214.5ZM294.34 215.094L251.34 171.594L248.496 174.406L291.496 217.906L294.34 215.094ZM251.918 173V44H247.918V173H251.918ZM296.918 44V173H300.918V44H296.918ZM298.918 175H379.418V171H298.918V175ZM381.418 173V44H377.418V173H381.418ZM379.418 42H298.918V46H379.418V42ZM675.5 302.5L676.914 303.914L677.5 303.328V302.5H675.5ZM632 346V348H632.828L633.414 347.414L632 346ZM545.5 346L544.078 347.406L544.665 348H545.5V346ZM502.5 302.5H500.5V303.322L501.078 303.906L502.5 302.5ZM502.5 259.5V257.5H500.5V259.5H502.5ZM552 259.5H554V257.5H552V259.5ZM552 302.5H550V304.5H552V302.5ZM626 302.5V304.5H628V302.5H626ZM626 173H628V171H626V173ZM502.5 173H500.5V175H502.5V173ZM502.5 0.499977V-1.50002H500.5V0.499977H502.5ZM675.5 0.499977H677.5V-1.50002H675.5V0.499977ZM675.5 44V46H677.5V44H675.5ZM545.5 44V42H543.5V44H545.5ZM545.5 130H543.5V132H545.5V130ZM632 130L633.406 128.578L632.822 128H632V130ZM675.5 173H677.5V172.165L676.906 171.578L675.5 173ZM674.086 301.086L630.586 344.586L633.414 347.414L676.914 303.914L674.086 301.086ZM632 344H545.5V348H632V344ZM546.922 344.594L503.922 301.094L501.078 303.906L544.078 347.406L546.922 344.594ZM504.5 302.5V259.5H500.5V302.5H504.5ZM502.5 261.5H552V257.5H502.5V261.5ZM550 259.5V302.5H554V259.5H550ZM552 304.5H626V300.5H552V304.5ZM628 302.5V173H624V302.5H628ZM626 171H502.5V175H626V171ZM504.5 173V0.499977H500.5V173H504.5ZM502.5 2.49998H675.5V-1.50002H502.5V2.49998ZM673.5 0.499977V44H677.5V0.499977H673.5ZM675.5 42H545.5V46H675.5V42ZM543.5 44V130H547.5V44H543.5ZM545.5 132H632V128H545.5V132ZM630.594 131.422L674.094 174.422L676.906 171.578L633.406 128.578L630.594 131.422ZM673.5 173V302.5H677.5V173H673.5ZM918.582 180L919.992 181.419L920.582 180.832V180H918.582ZM841.582 256.5L840.172 255.081L839.582 255.668V256.5H841.582ZM841.582 346V348H843.582V346H841.582ZM792.082 346H790.082V348H792.082V346ZM792.082 242.5L790.663 241.09L790.082 241.675V242.5H792.082ZM869.082 165L870.501 166.41L871.082 165.825V165H869.082ZM869.082 44H871.082V42H869.082V44ZM789.082 44V42H787.082V44H789.082ZM789.082 130V132H791.082V130H789.082ZM740.082 130H738.082V132H740.082V130ZM740.082 0.499977V-1.50002H738.082V0.499977H740.082ZM918.582 0.499977H920.582V-1.50002H918.582V0.499977ZM917.172 178.581L840.172 255.081L842.992 257.919L919.992 181.419L917.172 178.581ZM839.582 256.5V346H843.582V256.5H839.582ZM841.582 344H792.082V348H841.582V344ZM794.082 346V242.5H790.082V346H794.082ZM793.501 243.91L870.501 166.41L867.663 163.59L790.663 241.09L793.501 243.91ZM871.082 165V44H867.082V165H871.082ZM869.082 42H789.082V46H869.082V42ZM787.082 44V130H791.082V44H787.082ZM789.082 128H740.082V132H789.082V128ZM742.082 130V0.499977H738.082V130H742.082ZM740.082 2.49998H918.582V-1.50002H740.082V2.49998ZM916.582 0.499977V180H920.582V0.499977H916.582Z" fill="#C7C7C7" fill-opacity="0.4" mask="url(#path-1-outside-1_114_468)"/>
</svg>
