<svg width="923" height="346" viewBox="0 0 923 346" fill="none" xmlns="http://www.w3.org/2000/svg">
<mask id="path-1-outside-1_1_733" maskUnits="userSpaceOnUse" x="-2.99805" y="-2" width="928" height="350" fill="black">
<rect fill="white" x="-2.99805" y="-2" width="928" height="350"/>
<path d="M185.338 346H12.3379V302.5H92.8379V52.5H86.8379L31.3379 108L0.337891 77L76.8379 0.499978H142.338V302.5H185.338V346ZM249.92 44L292.92 0.499978H385.42L428.92 44V302.5L385.42 346H255.92V302.5H379.42V216.5H292.92L249.92 173V44ZM298.92 44V173H379.42V44H298.92ZM681.502 302.5L638.502 346H545.502L502.502 302.5V44L545.502 0.499978H675.502V44H552.002V130H638.502L681.502 173V302.5ZM632.002 302.5V173H552.002V302.5H632.002ZM922.084 302.5L878.584 346H792.084L749.084 302.5V44L792.084 0.499978H878.584L922.084 44V302.5ZM872.584 302.5V44H798.584V302.5H872.584Z"/>
</mask>
<path d="M185.338 346V348H187.338V346H185.338ZM12.3379 346H10.3379V348H12.3379V346ZM12.3379 302.5V300.5H10.3379V302.5H12.3379ZM92.8379 302.5V304.5H94.8379V302.5H92.8379ZM92.8379 52.5H94.8379V50.5H92.8379V52.5ZM86.8379 52.5V50.5H86.0095L85.4237 51.0858L86.8379 52.5ZM31.3379 108L29.9237 109.414L31.3379 110.828L32.7521 109.414L31.3379 108ZM0.337891 77L-1.07632 75.5858L-2.49054 77L-1.07632 78.4142L0.337891 77ZM76.8379 0.499977V-1.50002H76.0095L75.4237 -0.914238L76.8379 0.499977ZM142.338 0.499977H144.338V-1.50002H142.338V0.499977ZM142.338 302.5H140.338V304.5H142.338V302.5ZM185.338 302.5H187.338V300.5H185.338V302.5ZM185.338 344H12.3379V348H185.338V344ZM14.3379 346V302.5H10.3379V346H14.3379ZM12.3379 304.5H92.8379V300.5H12.3379V304.5ZM94.8379 302.5V52.5H90.8379V302.5H94.8379ZM92.8379 50.5H86.8379V54.5H92.8379V50.5ZM85.4237 51.0858L29.9237 106.586L32.7521 109.414L88.2521 53.9142L85.4237 51.0858ZM32.7521 106.586L1.75211 75.5858L-1.07632 78.4142L29.9237 109.414L32.7521 106.586ZM1.75211 78.4142L78.2521 1.91419L75.4237 -0.914238L-1.07632 75.5858L1.75211 78.4142ZM76.8379 2.49998H142.338V-1.50002H76.8379V2.49998ZM140.338 0.499977V302.5H144.338V0.499977H140.338ZM142.338 304.5H185.338V300.5H142.338V304.5ZM183.338 302.5V346H187.338V302.5H183.338ZM249.92 44L248.498 42.594L247.92 43.1783V44H249.92ZM292.92 0.499977V-1.50002H292.085L291.498 -0.906036L292.92 0.499977ZM385.42 0.499977L386.834 -0.914238L386.248 -1.50002H385.42V0.499977ZM428.92 44H430.92V43.1716L430.334 42.5858L428.92 44ZM428.92 302.5L430.334 303.914L430.92 303.328V302.5H428.92ZM385.42 346V348H386.248L386.834 347.414L385.42 346ZM255.92 346H253.92V348H255.92V346ZM255.92 302.5V300.5H253.92V302.5H255.92ZM379.42 302.5V304.5H381.42V302.5H379.42ZM379.42 216.5H381.42V214.5H379.42V216.5ZM292.92 216.5L291.498 217.906L292.085 218.5H292.92V216.5ZM249.92 173H247.92V173.822L248.498 174.406L249.92 173ZM298.92 44V42H296.92V44H298.92ZM298.92 173H296.92V175H298.92V173ZM379.42 173V175H381.42V173H379.42ZM379.42 44H381.42V42H379.42V44ZM251.342 45.406L294.342 1.90599L291.498 -0.906036L248.498 42.594L251.342 45.406ZM292.92 2.49998H385.42V-1.50002H292.92V2.49998ZM384.006 1.91419L427.506 45.4142L430.334 42.5858L386.834 -0.914238L384.006 1.91419ZM426.92 44V302.5H430.92V44H426.92ZM427.506 301.086L384.006 344.586L386.834 347.414L430.334 303.914L427.506 301.086ZM385.42 344H255.92V348H385.42V344ZM257.92 346V302.5H253.92V346H257.92ZM255.92 304.5H379.42V300.5H255.92V304.5ZM381.42 302.5V216.5H377.42V302.5H381.42ZM379.42 214.5H292.92V218.5H379.42V214.5ZM294.342 215.094L251.342 171.594L248.498 174.406L291.498 217.906L294.342 215.094ZM251.92 173V44H247.92V173H251.92ZM296.92 44V173H300.92V44H296.92ZM298.92 175H379.42V171H298.92V175ZM381.42 173V44H377.42V173H381.42ZM379.42 42H298.92V46H379.42V42ZM681.502 302.5L682.924 303.906L683.502 303.322V302.5H681.502ZM638.502 346V348H639.337L639.924 347.406L638.502 346ZM545.502 346L544.08 347.406L544.667 348H545.502V346ZM502.502 302.5H500.502V303.322L501.08 303.906L502.502 302.5ZM502.502 44L501.08 42.594L500.502 43.1783V44H502.502ZM545.502 0.499977V-1.50002H544.667L544.08 -0.906036L545.502 0.499977ZM675.502 0.499977H677.502V-1.50002H675.502V0.499977ZM675.502 44V46H677.502V44H675.502ZM552.002 44V42H550.002V44H552.002ZM552.002 130H550.002V132H552.002V130ZM638.502 130L639.916 128.586L639.33 128H638.502V130ZM681.502 173H683.502V172.172L682.916 171.586L681.502 173ZM632.002 302.5V304.5H634.002V302.5H632.002ZM632.002 173H634.002V171H632.002V173ZM552.002 173V171H550.002V173H552.002ZM552.002 302.5H550.002V304.5H552.002V302.5ZM680.08 301.094L637.08 344.594L639.924 347.406L682.924 303.906L680.08 301.094ZM638.502 344H545.502V348H638.502V344ZM546.924 344.594L503.924 301.094L501.08 303.906L544.08 347.406L546.924 344.594ZM504.502 302.5V44H500.502V302.5H504.502ZM503.924 45.406L546.924 1.90599L544.08 -0.906036L501.08 42.594L503.924 45.406ZM545.502 2.49998H675.502V-1.50002H545.502V2.49998ZM673.502 0.499977V44H677.502V0.499977H673.502ZM675.502 42H552.002V46H675.502V42ZM550.002 44V130H554.002V44H550.002ZM552.002 132H638.502V128H552.002V132ZM637.088 131.414L680.088 174.414L682.916 171.586L639.916 128.586L637.088 131.414ZM679.502 173V302.5H683.502V173H679.502ZM634.002 302.5V173H630.002V302.5H634.002ZM632.002 171H552.002V175H632.002V171ZM550.002 173V302.5H554.002V173H550.002ZM552.002 304.5H632.002V300.5H552.002V304.5ZM922.084 302.5L923.498 303.914L924.084 303.328V302.5H922.084ZM878.584 346V348H879.412L879.998 347.414L878.584 346ZM792.084 346L790.662 347.406L791.249 348H792.084V346ZM749.084 302.5H747.084V303.322L747.662 303.906L749.084 302.5ZM749.084 44L747.662 42.594L747.084 43.1783V44H749.084ZM792.084 0.499977V-1.50002H791.249L790.662 -0.906036L792.084 0.499977ZM878.584 0.499977L879.998 -0.914238L879.412 -1.50002H878.584V0.499977ZM922.084 44H924.084V43.1716L923.498 42.5858L922.084 44ZM872.584 302.5V304.5H874.584V302.5H872.584ZM872.584 44H874.584V42H872.584V44ZM798.584 44V42H796.584V44H798.584ZM798.584 302.5H796.584V304.5H798.584V302.5ZM920.67 301.086L877.17 344.586L879.998 347.414L923.498 303.914L920.67 301.086ZM878.584 344H792.084V348H878.584V344ZM793.506 344.594L750.506 301.094L747.662 303.906L790.662 347.406L793.506 344.594ZM751.084 302.5V44H747.084V302.5H751.084ZM750.506 45.406L793.506 1.90599L790.662 -0.906036L747.662 42.594L750.506 45.406ZM792.084 2.49998H878.584V-1.50002H792.084V2.49998ZM877.17 1.91419L920.67 45.4142L923.498 42.5858L879.998 -0.914238L877.17 1.91419ZM920.084 44V302.5H924.084V44H920.084ZM874.584 302.5V44H870.584V302.5H874.584ZM872.584 42H798.584V46H872.584V42ZM796.584 44V302.5H800.584V44H796.584ZM798.584 304.5H872.584V300.5H798.584V304.5Z" fill="#C7C7C7" fill-opacity="0.4" mask="url(#path-1-outside-1_1_733)"/>
</svg>
