<svg width="983" height="406" viewBox="0 0 983 406" fill="none" xmlns="http://www.w3.org/2000/svg">
<g filter="url(#filter0_f_1_734)">
<mask id="path-1-outside-1_1_734" maskUnits="userSpaceOnUse" x="26.002" y="27" width="930" height="352" fill="black">
<rect fill="white" x="26.002" y="27" width="930" height="352"/>
<path d="M215.338 376H42.3379V332.5H122.838V82.5H116.838L61.3379 138L30.3379 107L106.838 30.5H172.338V332.5H215.338V376ZM279.92 74L322.92 30.5H415.42L458.92 74V332.5L415.42 376H285.92V332.5H409.42V246.5H322.92L279.92 203V74ZM328.92 74V203H409.42V74H328.92ZM711.502 332.5L668.502 376H575.502L532.502 332.5V74L575.502 30.5H705.502V74H582.002V160H668.502L711.502 203V332.5ZM662.002 332.5V203H582.002V332.5H662.002ZM952.084 332.5L908.584 376H822.084L779.084 332.5V74L822.084 30.5H908.584L952.084 74V332.5ZM902.584 332.5V74H828.584V332.5H902.584Z"/>
</mask>
<path d="M215.338 376V379H218.338V376H215.338ZM42.3379 376H39.3379V379H42.3379V376ZM42.3379 332.5V329.5H39.3379V332.5H42.3379ZM122.838 332.5V335.5H125.838V332.5H122.838ZM122.838 82.5H125.838V79.5H122.838V82.5ZM116.838 82.5V79.5H115.595L114.717 80.3787L116.838 82.5ZM61.3379 138L59.2166 140.121L61.3379 142.243L63.4592 140.121L61.3379 138ZM30.3379 107L28.2166 104.879L26.0952 107L28.2166 109.121L30.3379 107ZM106.838 30.5V27.5H105.595L104.717 28.3787L106.838 30.5ZM172.338 30.5H175.338V27.5H172.338V30.5ZM172.338 332.5H169.338V335.5H172.338V332.5ZM215.338 332.5H218.338V329.5H215.338V332.5ZM215.338 373H42.3379V379H215.338V373ZM45.3379 376V332.5H39.3379V376H45.3379ZM42.3379 335.5H122.838V329.5H42.3379V335.5ZM125.838 332.5V82.5H119.838V332.5H125.838ZM122.838 79.5H116.838V85.5H122.838V79.5ZM114.717 80.3787L59.2166 135.879L63.4592 140.121L118.959 84.6213L114.717 80.3787ZM63.4592 135.879L32.4592 104.879L28.2166 109.121L59.2166 140.121L63.4592 135.879ZM32.4592 109.121L108.959 32.6213L104.717 28.3787L28.2166 104.879L32.4592 109.121ZM106.838 33.5H172.338V27.5H106.838V33.5ZM169.338 30.5V332.5H175.338V30.5H169.338ZM172.338 335.5H215.338V329.5H172.338V335.5ZM212.338 332.5V376H218.338V332.5H212.338ZM279.92 74L277.786 71.891L276.92 72.7675V74H279.92ZM322.92 30.5V27.5H321.667L320.786 28.391L322.92 30.5ZM415.42 30.5L417.541 28.3787L416.663 27.5H415.42V30.5ZM458.92 74H461.92V72.7573L461.041 71.8787L458.92 74ZM458.92 332.5L461.041 334.621L461.92 333.743V332.5H458.92ZM415.42 376V379H416.663L417.541 378.121L415.42 376ZM285.92 376H282.92V379H285.92V376ZM285.92 332.5V329.5H282.92V332.5H285.92ZM409.42 332.5V335.5H412.42V332.5H409.42ZM409.42 246.5H412.42V243.5H409.42V246.5ZM322.92 246.5L320.786 248.609L321.667 249.5H322.92V246.5ZM279.92 203H276.92V204.232L277.786 205.109L279.92 203ZM328.92 74V71H325.92V74H328.92ZM328.92 203H325.92V206H328.92V203ZM409.42 203V206H412.42V203H409.42ZM409.42 74H412.42V71H409.42V74ZM282.053 76.109L325.053 32.609L320.786 28.391L277.786 71.891L282.053 76.109ZM322.92 33.5H415.42V27.5H322.92V33.5ZM413.299 32.6213L456.799 76.1213L461.041 71.8787L417.541 28.3787L413.299 32.6213ZM455.92 74V332.5H461.92V74H455.92ZM456.799 330.379L413.299 373.879L417.541 378.121L461.041 334.621L456.799 330.379ZM415.42 373H285.92V379H415.42V373ZM288.92 376V332.5H282.92V376H288.92ZM285.92 335.5H409.42V329.5H285.92V335.5ZM412.42 332.5V246.5H406.42V332.5H412.42ZM409.42 243.5H322.92V249.5H409.42V243.5ZM325.053 244.391L282.053 200.891L277.786 205.109L320.786 248.609L325.053 244.391ZM282.92 203V74H276.92V203H282.92ZM325.92 74V203H331.92V74H325.92ZM328.92 206H409.42V200H328.92V206ZM412.42 203V74H406.42V203H412.42ZM409.42 71H328.92V77H409.42V71ZM711.502 332.5L713.635 334.609L714.502 333.732V332.5H711.502ZM668.502 376V379H669.755L670.635 378.109L668.502 376ZM575.502 376L573.368 378.109L574.249 379H575.502V376ZM532.502 332.5H529.502V333.732L530.368 334.609L532.502 332.5ZM532.502 74L530.368 71.891L529.502 72.7675V74H532.502ZM575.502 30.5V27.5H574.249L573.368 28.391L575.502 30.5ZM705.502 30.5H708.502V27.5H705.502V30.5ZM705.502 74V77H708.502V74H705.502ZM582.002 74V71H579.002V74H582.002ZM582.002 160H579.002V163H582.002V160ZM668.502 160L670.623 157.879L669.745 157H668.502V160ZM711.502 203H714.502V201.757L713.623 200.879L711.502 203ZM662.002 332.5V335.5H665.002V332.5H662.002ZM662.002 203H665.002V200H662.002V203ZM582.002 203V200H579.002V203H582.002ZM582.002 332.5H579.002V335.5H582.002V332.5ZM709.368 330.391L666.368 373.891L670.635 378.109L713.635 334.609L709.368 330.391ZM668.502 373H575.502V379H668.502V373ZM577.635 373.891L534.635 330.391L530.368 334.609L573.368 378.109L577.635 373.891ZM535.502 332.5V74H529.502V332.5H535.502ZM534.635 76.109L577.635 32.609L573.368 28.391L530.368 71.891L534.635 76.109ZM575.502 33.5H705.502V27.5H575.502V33.5ZM702.502 30.5V74H708.502V30.5H702.502ZM705.502 71H582.002V77H705.502V71ZM579.002 74V160H585.002V74H579.002ZM582.002 163H668.502V157H582.002V163ZM666.381 162.121L709.381 205.121L713.623 200.879L670.623 157.879L666.381 162.121ZM708.502 203V332.5H714.502V203H708.502ZM665.002 332.5V203H659.002V332.5H665.002ZM662.002 200H582.002V206H662.002V200ZM579.002 203V332.5H585.002V203H579.002ZM582.002 335.5H662.002V329.5H582.002V335.5ZM952.084 332.5L954.205 334.621L955.084 333.743V332.5H952.084ZM908.584 376V379H909.827L910.705 378.121L908.584 376ZM822.084 376L819.95 378.109L820.831 379H822.084V376ZM779.084 332.5H776.084V333.732L776.95 334.609L779.084 332.5ZM779.084 74L776.95 71.891L776.084 72.7675V74H779.084ZM822.084 30.5V27.5H820.831L819.95 28.391L822.084 30.5ZM908.584 30.5L910.705 28.3787L909.827 27.5H908.584V30.5ZM952.084 74H955.084V72.7573L954.205 71.8787L952.084 74ZM902.584 332.5V335.5H905.584V332.5H902.584ZM902.584 74H905.584V71H902.584V74ZM828.584 74V71H825.584V74H828.584ZM828.584 332.5H825.584V335.5H828.584V332.5ZM949.963 330.379L906.463 373.879L910.705 378.121L954.205 334.621L949.963 330.379ZM908.584 373H822.084V379H908.584V373ZM824.218 373.891L781.218 330.391L776.95 334.609L819.95 378.109L824.218 373.891ZM782.084 332.5V74H776.084V332.5H782.084ZM781.218 76.109L824.218 32.609L819.95 28.391L776.95 71.891L781.218 76.109ZM822.084 33.5H908.584V27.5H822.084V33.5ZM906.463 32.6213L949.963 76.1213L954.205 71.8787L910.705 28.3787L906.463 32.6213ZM949.084 74V332.5H955.084V74H949.084ZM905.584 332.5V74H899.584V332.5H905.584ZM902.584 71H828.584V77H902.584V71ZM825.584 74V332.5H831.584V74H825.584ZM828.584 335.5H902.584V329.5H828.584V335.5Z" fill="#96ADFF" mask="url(#path-1-outside-1_1_734)"/>
</g>
<defs>
<filter id="filter0_f_1_734" x="0.337891" y="0.5" width="981.746" height="405.5" filterUnits="userSpaceOnUse" color-interpolation-filters="sRGB">
<feFlood flood-opacity="0" result="BackgroundImageFix"/>
<feBlend mode="normal" in="SourceGraphic" in2="BackgroundImageFix" result="shape"/>
<feGaussianBlur stdDeviation="15" result="effect1_foregroundBlur_1_734"/>
</filter>
</defs>
</svg>
