<svg width="926" height="346" viewBox="0 0 926 346" fill="none" xmlns="http://www.w3.org/2000/svg">
<mask id="path-1-outside-1_114_472" maskUnits="userSpaceOnUse" x="-3" y="-2" width="931" height="350" fill="black">
<rect fill="white" x="-3" y="-2" width="931" height="350"/>
<path d="M185.336 346H12.3359V302.5H92.8359V52.5H86.8359L31.3359 108L0.335938 77L76.8359 0.499978H142.336V302.5H185.336V346ZM249.918 44L292.918 0.499978H385.418L428.918 44V302.5L385.418 346H255.918V302.5H379.418V216.5H292.918L249.918 173V44ZM298.918 44V173H379.418V44H298.918ZM681.5 302.5L638.5 346H545.5L502.5 302.5V44L545.5 0.499978H675.5V44H552V130H638.5L681.5 173V302.5ZM632 302.5V173H552V302.5H632ZM925.082 346H752.082V302.5H832.582V52.5H826.582L771.082 108L740.082 77L816.582 0.499978H882.082V302.5H925.082V346Z"/>
</mask>
<path d="M185.336 346V348H187.336V346H185.336ZM12.3359 346H10.3359V348H12.3359V346ZM12.3359 302.5V300.5H10.3359V302.5H12.3359ZM92.8359 302.5V304.5H94.8359V302.5H92.8359ZM92.8359 52.5H94.8359V50.5H92.8359V52.5ZM86.8359 52.5V50.5H86.0075L85.4217 51.0858L86.8359 52.5ZM31.3359 108L29.9217 109.414L31.3359 110.828L32.7502 109.414L31.3359 108ZM0.335938 77L-1.07828 75.5858L-2.49249 77L-1.07828 78.4142L0.335938 77ZM76.8359 0.499977V-1.50002H76.0075L75.4217 -0.914238L76.8359 0.499977ZM142.336 0.499977H144.336V-1.50002H142.336V0.499977ZM142.336 302.5H140.336V304.5H142.336V302.5ZM185.336 302.5H187.336V300.5H185.336V302.5ZM185.336 344H12.3359V348H185.336V344ZM14.3359 346V302.5H10.3359V346H14.3359ZM12.3359 304.5H92.8359V300.5H12.3359V304.5ZM94.8359 302.5V52.5H90.8359V302.5H94.8359ZM92.8359 50.5H86.8359V54.5H92.8359V50.5ZM85.4217 51.0858L29.9217 106.586L32.7502 109.414L88.2502 53.9142L85.4217 51.0858ZM32.7502 106.586L1.75015 75.5858L-1.07828 78.4142L29.9217 109.414L32.7502 106.586ZM1.75015 78.4142L78.2502 1.91419L75.4217 -0.914238L-1.07828 75.5858L1.75015 78.4142ZM76.8359 2.49998H142.336V-1.50002H76.8359V2.49998ZM140.336 0.499977V302.5H144.336V0.499977H140.336ZM142.336 304.5H185.336V300.5H142.336V304.5ZM183.336 302.5V346H187.336V302.5H183.336ZM249.918 44L248.496 42.594L247.918 43.1783V44H249.918ZM292.918 0.499977V-1.50002H292.083L291.496 -0.906036L292.918 0.499977ZM385.418 0.499977L386.832 -0.914238L386.246 -1.50002H385.418V0.499977ZM428.918 44H430.918V43.1716L430.332 42.5858L428.918 44ZM428.918 302.5L430.332 303.914L430.918 303.328V302.5H428.918ZM385.418 346V348H386.246L386.832 347.414L385.418 346ZM255.918 346H253.918V348H255.918V346ZM255.918 302.5V300.5H253.918V302.5H255.918ZM379.418 302.5V304.5H381.418V302.5H379.418ZM379.418 216.5H381.418V214.5H379.418V216.5ZM292.918 216.5L291.496 217.906L292.083 218.5H292.918V216.5ZM249.918 173H247.918V173.822L248.496 174.406L249.918 173ZM298.918 44V42H296.918V44H298.918ZM298.918 173H296.918V175H298.918V173ZM379.418 173V175H381.418V173H379.418ZM379.418 44H381.418V42H379.418V44ZM251.34 45.406L294.34 1.90599L291.496 -0.906036L248.496 42.594L251.34 45.406ZM292.918 2.49998H385.418V-1.50002H292.918V2.49998ZM384.004 1.91419L427.504 45.4142L430.332 42.5858L386.832 -0.914238L384.004 1.91419ZM426.918 44V302.5H430.918V44H426.918ZM427.504 301.086L384.004 344.586L386.832 347.414L430.332 303.914L427.504 301.086ZM385.418 344H255.918V348H385.418V344ZM257.918 346V302.5H253.918V346H257.918ZM255.918 304.5H379.418V300.5H255.918V304.5ZM381.418 302.5V216.5H377.418V302.5H381.418ZM379.418 214.5H292.918V218.5H379.418V214.5ZM294.34 215.094L251.34 171.594L248.496 174.406L291.496 217.906L294.34 215.094ZM251.918 173V44H247.918V173H251.918ZM296.918 44V173H300.918V44H296.918ZM298.918 175H379.418V171H298.918V175ZM381.418 173V44H377.418V173H381.418ZM379.418 42H298.918V46H379.418V42ZM681.5 302.5L682.922 303.906L683.5 303.322V302.5H681.5ZM638.5 346V348H639.335L639.922 347.406L638.5 346ZM545.5 346L544.078 347.406L544.665 348H545.5V346ZM502.5 302.5H500.5V303.322L501.078 303.906L502.5 302.5ZM502.5 44L501.078 42.594L500.5 43.1783V44H502.5ZM545.5 0.499977V-1.50002H544.665L544.078 -0.906036L545.5 0.499977ZM675.5 0.499977H677.5V-1.50002H675.5V0.499977ZM675.5 44V46H677.5V44H675.5ZM552 44V42H550V44H552ZM552 130H550V132H552V130ZM638.5 130L639.914 128.586L639.328 128H638.5V130ZM681.5 173H683.5V172.172L682.914 171.586L681.5 173ZM632 302.5V304.5H634V302.5H632ZM632 173H634V171H632V173ZM552 173V171H550V173H552ZM552 302.5H550V304.5H552V302.5ZM680.078 301.094L637.078 344.594L639.922 347.406L682.922 303.906L680.078 301.094ZM638.5 344H545.5V348H638.5V344ZM546.922 344.594L503.922 301.094L501.078 303.906L544.078 347.406L546.922 344.594ZM504.5 302.5V44H500.5V302.5H504.5ZM503.922 45.406L546.922 1.90599L544.078 -0.906036L501.078 42.594L503.922 45.406ZM545.5 2.49998H675.5V-1.50002H545.5V2.49998ZM673.5 0.499977V44H677.5V0.499977H673.5ZM675.5 42H552V46H675.5V42ZM550 44V130H554V44H550ZM552 132H638.5V128H552V132ZM637.086 131.414L680.086 174.414L682.914 171.586L639.914 128.586L637.086 131.414ZM679.5 173V302.5H683.5V173H679.5ZM634 302.5V173H630V302.5H634ZM632 171H552V175H632V171ZM550 173V302.5H554V173H550ZM552 304.5H632V300.5H552V304.5ZM925.082 346V348H927.082V346H925.082ZM752.082 346H750.082V348H752.082V346ZM752.082 302.5V300.5H750.082V302.5H752.082ZM832.582 302.5V304.5H834.582V302.5H832.582ZM832.582 52.5H834.582V50.5H832.582V52.5ZM826.582 52.5V50.5H825.754L825.168 51.0858L826.582 52.5ZM771.082 108L769.668 109.414L771.082 110.828L772.496 109.414L771.082 108ZM740.082 77L738.668 75.5858L737.254 77L738.668 78.4142L740.082 77ZM816.582 0.499977V-1.50002H815.754L815.168 -0.914238L816.582 0.499977ZM882.082 0.499977H884.082V-1.50002H882.082V0.499977ZM882.082 302.5H880.082V304.5H882.082V302.5ZM925.082 302.5H927.082V300.5H925.082V302.5ZM925.082 344H752.082V348H925.082V344ZM754.082 346V302.5H750.082V346H754.082ZM752.082 304.5H832.582V300.5H752.082V304.5ZM834.582 302.5V52.5H830.582V302.5H834.582ZM832.582 50.5H826.582V54.5H832.582V50.5ZM825.168 51.0858L769.668 106.586L772.496 109.414L827.996 53.9142L825.168 51.0858ZM772.496 106.586L741.496 75.5858L738.668 78.4142L769.668 109.414L772.496 106.586ZM741.496 78.4142L817.996 1.91419L815.168 -0.914238L738.668 75.5858L741.496 78.4142ZM816.582 2.49998H882.082V-1.50002H816.582V2.49998ZM880.082 0.499977V302.5H884.082V0.499977H880.082ZM882.082 304.5H925.082V300.5H882.082V304.5ZM923.082 302.5V346H927.082V302.5H923.082Z" fill="#C7C7C7" fill-opacity="0.4" mask="url(#path-1-outside-1_114_472)"/>
</svg>
