<svg width="98" height="68" viewBox="0 0 98 68" fill="none" xmlns="http://www.w3.org/2000/svg">
<path d="M28.8282 46H16.3722V42.868H22.1682V24.868H21.7362L17.7402 28.864L15.5082 26.632L21.0162 21.124H25.7322V42.868H28.8282V46ZM33.4781 24.256L36.5741 21.124H43.2341L46.3661 24.256V42.868L43.2341 46H33.9101V42.868H42.8021V36.676H36.5741L33.4781 33.544V24.256ZM37.0061 24.256V33.544H42.8021V24.256H37.0061ZM63.688 32.968L54.112 42.436V42.868H63.436V46H51.016V41.176L60.124 32.104V24.256H54.544V30.448H51.016V24.256L54.076 21.124H60.592L63.688 24.256V32.968ZM82.3059 42.868L79.2099 46H72.5139L69.4179 42.868V24.256L72.5139 21.124H81.8739V24.256H72.9819V30.448H79.2099L82.3059 33.544V42.868ZM78.7419 42.868V33.544H72.9819V42.868H78.7419Z" fill="#C6C6C6"/>
</svg>
