<svg width="1253" height="436" viewBox="0 0 1253 436" fill="none" xmlns="http://www.w3.org/2000/svg">
<path d="M5 298.06L57.3372 198.241H303.376M303.376 198.241L351.397 110.833M303.376 198.241H401.036M401.036 198.241L360.03 298.06M401.036 198.241H692.398M692.398 198.241L597.436 431.331M692.398 198.241H742.038M742.038 198.241L829.986 4M742.038 198.241H906.064M906.064 198.241L870.992 298.06M906.064 198.241H1198.5L1247.06 110.833" stroke="#C6C6C6" stroke-width="6" stroke-linecap="square" stroke-linejoin="round"/>
<path d="M815.418 211.192L822.972 198.242H907.683L902.287 211.192H815.418Z" fill="#C6C6C6"/>
<path d="M416.144 183.674L401.576 198.781L692.938 198.512L699.413 183.674H416.144Z" fill="#C6C6C6"/>
<path d="M969.732 186.91L955.164 202.018L1246.53 201.748L1253 186.91H969.732Z" fill="#C6C6C6"/>
<path d="M303.916 214.428H49.2441L58.9562 199.32H324.419L303.916 214.428Z" fill="#C6C6C6" stroke="#C6C6C6" stroke-width="6" stroke-linecap="round" stroke-linejoin="round"/>
<path d="M77.5 198L79.6329 204.219H86.535L80.9511 208.062L83.084 214.281L77.5 210.438L71.916 214.281L74.0489 208.062L68.465 204.219H75.3671L77.5 198Z" fill="#050A10"/>
<path d="M540 184L542.245 190.219H549.511L543.633 194.062L545.878 200.281L540 196.438L534.122 200.281L536.367 194.062L530.489 190.219H537.755L540 184Z" fill="#080D18"/>
<path d="M831 196L833.021 201.528H839.56L834.269 204.944L836.29 210.472L831 207.056L825.71 210.472L827.731 204.944L822.44 201.528H828.979L831 196Z" fill="#080D18"/>
<path d="M1232 187L1234.02 192.528H1240.56L1235.27 195.944L1237.29 201.472L1232 198.056L1226.71 201.472L1228.73 195.944L1223.44 192.528H1229.98L1232 187Z" fill="#080D18"/>
</svg>
