<svg width="98" height="68" viewBox="0 0 98 68" fill="none" xmlns="http://www.w3.org/2000/svg">
<path d="M28.8282 46H16.3722V42.868H22.1682V24.868H21.7362L17.7402 28.864L15.5082 26.632L21.0162 21.124H25.7322V42.868H28.8282V46ZM33.4781 24.256L36.5741 21.124H43.2341L46.3661 24.256V42.868L43.2341 46H33.9101V42.868H42.8021V36.676H36.5741L33.4781 33.544V24.256ZM37.0061 24.256V33.544H42.8021V24.256H37.0061ZM64.12 42.868L60.988 46H54.76L51.664 42.868V24.256L54.76 21.124H60.988L64.12 24.256V42.868ZM60.556 42.868V24.256H55.228V42.868H60.556ZM81.1899 42.868L78.1299 46H71.5779L68.5179 42.868V39.772H72.0819V42.868H77.6259V33.544H71.7939V30.952L78.0579 24.688V24.256H68.5179V21.124H81.1899V25.12L75.8259 30.448V30.88H78.0579L81.1899 34.012V42.868Z" fill="#C6C6C6"/>
</svg>
