<svg width="98" height="68" viewBox="0 0 98 68" fill="none" xmlns="http://www.w3.org/2000/svg">
<path d="M28.8282 46H16.3722V42.868H22.1682V24.868H21.7362L17.7402 28.864L15.5082 26.632L21.0162 21.124H25.7322V42.868H28.8282V46ZM33.4781 24.256L36.5741 21.124H43.2341L46.3661 24.256V42.868L43.2341 46H33.9101V42.868H42.8021V36.676H36.5741L33.4781 33.544V24.256ZM37.0061 24.256V33.544H42.8021V24.256H37.0061ZM63.436 42.868L60.376 46H53.824L50.764 42.868V39.772H54.328V42.868H59.872V33.544H54.04V30.952L60.304 24.688V24.256H50.764V21.124H63.436V25.12L58.072 30.448V30.88H60.304L63.436 34.012V42.868ZM82.0899 46H69.6339V42.868H75.4299V24.868H74.9979L71.0019 28.864L68.7699 26.632L74.2779 21.124H78.9939V42.868H82.0899V46Z" fill="#C6C6C6"/>
</svg>
