<svg width="98" height="68" viewBox="0 0 98 68" fill="none" xmlns="http://www.w3.org/2000/svg">
<path d="M28.8282 46H16.3722V42.868H22.1682V24.868H21.7362L17.7402 28.864L15.5082 26.632L21.0162 21.124H25.7322V42.868H28.8282V46ZM33.4781 24.256L36.5741 21.124H43.2341L46.3661 24.256V42.868L43.2341 46H33.9101V42.868H42.8021V36.676H36.5741L33.4781 33.544V24.256ZM37.0061 24.256V33.544H42.8021V24.256H37.0061ZM64.552 42.868L61.456 46H54.76L51.664 42.868V24.256L54.76 21.124H64.12V24.256H55.228V30.448H61.456L64.552 33.544V42.868ZM60.988 42.868V33.544H55.228V42.868H60.988ZM81.8739 42.868L78.7419 46H72.5139L69.4179 42.868V24.256L72.5139 21.124H78.7419L81.8739 24.256V42.868ZM78.3099 42.868V24.256H72.9819V42.868H78.3099Z" fill="#C6C6C6"/>
</svg>
