<svg width="98" height="68" viewBox="0 0 98 68" fill="none" xmlns="http://www.w3.org/2000/svg">
<path d="M28.8282 46H16.3722V42.868H22.1682V24.868H21.7362L17.7402 28.864L15.5082 26.632L21.0162 21.124H25.7322V42.868H28.8282V46ZM33.4781 24.256L36.5741 21.124H43.2341L46.3661 24.256V42.868L43.2341 46H33.9101V42.868H42.8021V36.676H36.5741L33.4781 33.544V24.256ZM37.0061 24.256V33.544H42.8021V24.256H37.0061ZM64.12 42.868L60.988 46H54.76L51.664 42.868V39.772H55.228V42.868H60.556V33.544H51.664V21.124H64.12V24.256H54.76V30.448H60.988L64.12 33.544V42.868ZM81.6219 34.048L76.0779 39.556V46H72.5139V38.548L78.0579 32.968V24.256H72.2979V30.448H68.7699V21.124H81.6219V34.048Z" fill="#C6C6C6"/>
</svg>
